# xmcd CD database file
#
# Track frame offsets:
#	150
#	31742
#	75602
#	108653
#	136987
#	172583
#	203017
#	234592
#	262976
#
# Disc length: 3992 seconds
#
# Revision: 0
# Processed by: cddbd v1.5.2PL0 Copyright (c) Steve Scherf et al.
# Submitted via: CDex 1.51
#
DISCID=660f9609
DTITLE=Karolina Strassmayer and Droro Mondlak - Klaro! - small moments
DYEAR=2013
DGENRE=Jazz
TTITLE0=God Of Wind
TTITLE1=Call Of The Forefathers
TTITLE2=Seven Minutes in Heaven
TTITLE3=Small Moments
TTITLE4=Three For All
TTITLE5=Ibex Incentation
TTITLE6=Heidi's Dream
TTITLE7=October Sun
TTITLE8=Last One Standing
EXTD=YEAR: 2013
EXTT0=
EXTT1=
EXTT2=
EXTT3=
EXTT4=
EXTT5=
EXTT6=
EXTT7=
EXTT8=
PLAYORDER=
